<svg id="Ebene_1"  xmlns="http://www.w3.org/2000/svg" viewBox="0 0 4000 4000"><defs><style>.cls-1{fill:#5ab4e6;}.cls-2{fill:#f0d1b2;}.cls-3{fill:none;}.cls-3,.cls-4{stroke:#000;stroke-miterlimit:10;stroke-width:122px;}.cls-4{fill:#fff;}</style></defs><title>apfelsieneZeichenfläche 1</title><rect class="cls-1" x="-1965.13" y="1557.86" width="5807.47" height="2992.07" transform="translate(-557.13 5877.02) rotate(-135)"/><rect class="cls-2" x="168.14" y="-588.59" width="5762.21" height="3013.69" transform="translate(4556.09 3723.7) rotate(-135)"/><line class="cls-3" x1="2573" y1="2573" x2="4069.5" y2="4069.5"/><rect class="cls-3" x="1207.77" y="795.41" width="1605.55" height="2408.71" rx="140" transform="translate(2002.92 -835.95) rotate(45)"/><circle class="cls-3" cx="2011.5" cy="1999.5" r="422.5"/><line class="cls-3" x1="2506" y1="2334" x2="1502" y2="2334"/><path class="cls-1" d="M1768,2266c14.55,15.43,26.93,29.33,37,41,23.8,27.57,31.53,39,30,53a34.31,34.31,0,0,1-6,16c-6.31,8.85-17.48,14.89-60,18a530.47,530.47,0,0,1-59,1l125,172,271,43,128-65,117-150c-26,0-58.49-.22-96-1-37.7-.78-60.29-1.7-70-17-6.65-10.48-4.5-23.37-4-26,2.56-13.46,12.58-23.51,30-41l8-8,12-12c5-5,13.73-13.54,30-29Z"/><rect class="cls-4" x="2600.03" y="635.21" width="518.03" height="1034.1" rx="140" transform="translate(5695.46 -54.62) rotate(135)"/><rect class="cls-4" x="891.03" y="2344.21" width="518.03" height="1034.1" rx="140" transform="translate(3986.46 4071.27) rotate(135)"/><line class="cls-3" x1="-57" y1="-50" x2="1449" y2="1456"/><rect x="1346" y="269" width="99" height="494" rx="49.5"/><rect x="1346.5" y="269.5" width="99" height="494" rx="49.5" transform="translate(1912.5 -879.5) rotate(90)"/><rect x="2458.5" y="3253.5" width="99" height="494" rx="49.5" transform="translate(6008.5 992.5) rotate(90)"/></svg>